<mxfile host="app.diagrams.net" modified="2024-03-26T07:45:48.193Z" agent="Mozilla/5.0 (Windows NT 10.0; Win64; x64) AppleWebKit/537.36 (KHTML, like Gecko) Chrome/123.0.0.0 Safari/537.36" etag="Do8v7sEXSvTmG_yGZ5Rx" version="24.0.1" type="google">
  <diagram name="Page-1" id="6tQTh-JsW9eSQx05F-0a">
    <mxGraphModel grid="1" page="1" gridSize="10" guides="1" tooltips="1" connect="1" arrows="1" fold="1" pageScale="1" pageWidth="850" pageHeight="1100" math="0" shadow="0">
      <root>
        <mxCell id="0" />
        <mxCell id="1" parent="0" />
        <mxCell id="PzUQUixHB01Sjxtiqrr--1" value="&lt;font style=&quot;font-size: 20px;&quot;&gt;Hospital Management System&lt;/font&gt;" style="swimlane;whiteSpace=wrap;html=1;startSize=40;" vertex="1" parent="1">
          <mxGeometry x="316" y="180" width="360" height="810" as="geometry">
            <mxRectangle x="316" y="190" width="320" height="40" as="alternateBounds" />
          </mxGeometry>
        </mxCell>
        <mxCell id="PzUQUixHB01Sjxtiqrr--2" value="Login" style="ellipse;whiteSpace=wrap;html=1;" vertex="1" parent="PzUQUixHB01Sjxtiqrr--1">
          <mxGeometry x="120" y="60" width="120" height="40" as="geometry" />
        </mxCell>
        <mxCell id="0xjuxr5iaV2dZGzFK_2R-1" value="Patient Registration" style="ellipse;whiteSpace=wrap;html=1;" vertex="1" parent="PzUQUixHB01Sjxtiqrr--1">
          <mxGeometry x="40" y="110" width="120" height="50" as="geometry" />
        </mxCell>
        <mxCell id="0xjuxr5iaV2dZGzFK_2R-3" value="Schedule&lt;br&gt;Appointment" style="ellipse;whiteSpace=wrap;html=1;" vertex="1" parent="PzUQUixHB01Sjxtiqrr--1">
          <mxGeometry x="40" y="290" width="120" height="50" as="geometry" />
        </mxCell>
        <mxCell id="0xjuxr5iaV2dZGzFK_2R-4" value="Upload Medical Report" style="ellipse;whiteSpace=wrap;html=1;" vertex="1" parent="PzUQUixHB01Sjxtiqrr--1">
          <mxGeometry x="40" y="230" width="120" height="50" as="geometry" />
        </mxCell>
        <mxCell id="0xjuxr5iaV2dZGzFK_2R-5" value="View Doctor Availability" style="ellipse;whiteSpace=wrap;html=1;" vertex="1" parent="PzUQUixHB01Sjxtiqrr--1">
          <mxGeometry x="40" y="170" width="120" height="50" as="geometry" />
        </mxCell>
        <mxCell id="0xjuxr5iaV2dZGzFK_2R-6" value="File Mediclaim" style="ellipse;whiteSpace=wrap;html=1;" vertex="1" parent="PzUQUixHB01Sjxtiqrr--1">
          <mxGeometry x="45" y="350" width="120" height="50" as="geometry" />
        </mxCell>
        <mxCell id="0xjuxr5iaV2dZGzFK_2R-7" value="Patient Addmition" style="ellipse;whiteSpace=wrap;html=1;" vertex="1" parent="PzUQUixHB01Sjxtiqrr--1">
          <mxGeometry x="45" y="410" width="120" height="50" as="geometry" />
        </mxCell>
        <mxCell id="0xjuxr5iaV2dZGzFK_2R-8" value="Patient Discharge" style="ellipse;whiteSpace=wrap;html=1;" vertex="1" parent="PzUQUixHB01Sjxtiqrr--1">
          <mxGeometry x="45" y="470" width="120" height="50" as="geometry" />
        </mxCell>
        <mxCell id="0xjuxr5iaV2dZGzFK_2R-10" value="Logout" style="ellipse;whiteSpace=wrap;html=1;" vertex="1" parent="PzUQUixHB01Sjxtiqrr--1">
          <mxGeometry x="120" y="723" width="120" height="40" as="geometry" />
        </mxCell>
        <mxCell id="0xjuxr5iaV2dZGzFK_2R-13" value="View Scheduled&lt;br style=&quot;border-color: var(--border-color);&quot;&gt;Appointment" style="ellipse;whiteSpace=wrap;html=1;" vertex="1" parent="PzUQUixHB01Sjxtiqrr--1">
          <mxGeometry x="203" y="230" width="118" height="50" as="geometry" />
        </mxCell>
        <mxCell id="0xjuxr5iaV2dZGzFK_2R-14" value="Approve / Decline&lt;br&gt;Appointment" style="ellipse;whiteSpace=wrap;html=1;" vertex="1" parent="PzUQUixHB01Sjxtiqrr--1">
          <mxGeometry x="202" y="290" width="120" height="50" as="geometry" />
        </mxCell>
        <mxCell id="0xjuxr5iaV2dZGzFK_2R-15" value="Update on&lt;br&gt;Schedule" style="ellipse;whiteSpace=wrap;html=1;" vertex="1" parent="PzUQUixHB01Sjxtiqrr--1">
          <mxGeometry x="202" y="350" width="120" height="50" as="geometry" />
        </mxCell>
        <mxCell id="0xjuxr5iaV2dZGzFK_2R-17" value="Check Patient Vitals" style="ellipse;whiteSpace=wrap;html=1;" vertex="1" parent="PzUQUixHB01Sjxtiqrr--1">
          <mxGeometry x="202" y="410" width="120" height="50" as="geometry" />
        </mxCell>
        <mxCell id="0xjuxr5iaV2dZGzFK_2R-12" value="Prescribe Test" style="ellipse;whiteSpace=wrap;html=1;" vertex="1" parent="PzUQUixHB01Sjxtiqrr--1">
          <mxGeometry x="202" y="170" width="120" height="50" as="geometry" />
        </mxCell>
        <mxCell id="0xjuxr5iaV2dZGzFK_2R-21" value="View Patient&lt;br&gt;Medical History" style="ellipse;whiteSpace=wrap;html=1;" vertex="1" parent="PzUQUixHB01Sjxtiqrr--1">
          <mxGeometry x="202" y="110" width="120" height="50" as="geometry" />
        </mxCell>
        <mxCell id="0xjuxr5iaV2dZGzFK_2R-23" value="Print bill&lt;br&gt;Receipt" style="ellipse;whiteSpace=wrap;html=1;" vertex="1" parent="PzUQUixHB01Sjxtiqrr--1">
          <mxGeometry x="120" y="530" width="120" height="50" as="geometry" />
        </mxCell>
        <mxCell id="0xjuxr5iaV2dZGzFK_2R-25" value="Maintenance&amp;nbsp;&amp;nbsp;of System" style="ellipse;whiteSpace=wrap;html=1;" vertex="1" parent="PzUQUixHB01Sjxtiqrr--1">
          <mxGeometry x="45" y="590" width="120" height="50" as="geometry" />
        </mxCell>
        <mxCell id="0xjuxr5iaV2dZGzFK_2R-22" value="Maintain Medicine Stock" style="ellipse;whiteSpace=wrap;html=1;" vertex="1" parent="PzUQUixHB01Sjxtiqrr--1">
          <mxGeometry x="202" y="470" width="120" height="50" as="geometry" />
        </mxCell>
        <mxCell id="0xjuxr5iaV2dZGzFK_2R-19" value="Upload Patient&lt;br&gt;Test Report" style="ellipse;whiteSpace=wrap;html=1;" vertex="1" parent="PzUQUixHB01Sjxtiqrr--1">
          <mxGeometry x="203" y="660" width="120" height="50" as="geometry" />
        </mxCell>
        <mxCell id="PzUQUixHB01Sjxtiqrr--3" value="Receptionist" style="shape=umlActor;verticalLabelPosition=bottom;verticalAlign=top;html=1;outlineConnect=0;" vertex="1" parent="1">
          <mxGeometry x="210" y="510" width="30" height="60" as="geometry" />
        </mxCell>
        <mxCell id="PzUQUixHB01Sjxtiqrr--5" value="Doctor" style="shape=umlActor;verticalLabelPosition=bottom;verticalAlign=top;html=1;outlineConnect=0;" vertex="1" parent="1">
          <mxGeometry x="722" y="400" width="30" height="60" as="geometry" />
        </mxCell>
        <mxCell id="PzUQUixHB01Sjxtiqrr--9" value="Nurse" style="shape=umlActor;verticalLabelPosition=bottom;verticalAlign=top;html=1;outlineConnect=0;" vertex="1" parent="1">
          <mxGeometry x="759" y="595" width="30" height="60" as="geometry" />
        </mxCell>
        <mxCell id="0xjuxr5iaV2dZGzFK_2R-2" value="" style="endArrow=classic;html=1;rounded=0;entryX=0.026;entryY=0.738;entryDx=0;entryDy=0;entryPerimeter=0;" edge="1" parent="1" source="PzUQUixHB01Sjxtiqrr--3" target="0xjuxr5iaV2dZGzFK_2R-1">
          <mxGeometry width="50" height="50" relative="1" as="geometry">
            <mxPoint x="380" y="360" as="sourcePoint" />
            <mxPoint x="430" y="310" as="targetPoint" />
          </mxGeometry>
        </mxCell>
        <mxCell id="0xjuxr5iaV2dZGzFK_2R-27" value="Admin" style="shape=umlActor;verticalLabelPosition=bottom;verticalAlign=top;html=1;outlineConnect=0;" vertex="1" parent="1">
          <mxGeometry x="268" y="730" width="30" height="60" as="geometry" />
        </mxCell>
        <mxCell id="0xjuxr5iaV2dZGzFK_2R-30" value="" style="endArrow=classic;html=1;rounded=0;" edge="1" parent="1" source="0xjuxr5iaV2dZGzFK_2R-27">
          <mxGeometry width="50" height="50" relative="1" as="geometry">
            <mxPoint x="260" y="770" as="sourcePoint" />
            <mxPoint x="360" y="800" as="targetPoint" />
          </mxGeometry>
        </mxCell>
        <mxCell id="0xjuxr5iaV2dZGzFK_2R-35" value="" style="endArrow=classic;html=1;rounded=0;entryX=0;entryY=0.5;entryDx=0;entryDy=0;" edge="1" parent="1" source="PzUQUixHB01Sjxtiqrr--3" target="0xjuxr5iaV2dZGzFK_2R-6">
          <mxGeometry width="50" height="50" relative="1" as="geometry">
            <mxPoint x="250" y="550" as="sourcePoint" />
            <mxPoint x="360" y="570" as="targetPoint" />
          </mxGeometry>
        </mxCell>
        <mxCell id="0xjuxr5iaV2dZGzFK_2R-36" value="" style="endArrow=classic;html=1;rounded=0;entryX=0;entryY=0.5;entryDx=0;entryDy=0;" edge="1" parent="1" source="PzUQUixHB01Sjxtiqrr--3" target="0xjuxr5iaV2dZGzFK_2R-5">
          <mxGeometry width="50" height="50" relative="1" as="geometry">
            <mxPoint x="220" y="550" as="sourcePoint" />
            <mxPoint x="270" y="500" as="targetPoint" />
          </mxGeometry>
        </mxCell>
        <mxCell id="0xjuxr5iaV2dZGzFK_2R-37" value="" style="endArrow=classic;html=1;rounded=0;entryX=0;entryY=0.5;entryDx=0;entryDy=0;exitX=1;exitY=0.3333333333333333;exitDx=0;exitDy=0;exitPerimeter=0;" edge="1" parent="1" source="PzUQUixHB01Sjxtiqrr--3" target="0xjuxr5iaV2dZGzFK_2R-4">
          <mxGeometry width="50" height="50" relative="1" as="geometry">
            <mxPoint x="220" y="550" as="sourcePoint" />
            <mxPoint x="350" y="440" as="targetPoint" />
          </mxGeometry>
        </mxCell>
        <mxCell id="0xjuxr5iaV2dZGzFK_2R-38" value="" style="endArrow=classic;html=1;rounded=0;entryX=0;entryY=0.5;entryDx=0;entryDy=0;" edge="1" parent="1" source="PzUQUixHB01Sjxtiqrr--3" target="0xjuxr5iaV2dZGzFK_2R-3">
          <mxGeometry width="50" height="50" relative="1" as="geometry">
            <mxPoint x="290" y="540" as="sourcePoint" />
            <mxPoint x="340" y="510" as="targetPoint" />
          </mxGeometry>
        </mxCell>
        <mxCell id="0xjuxr5iaV2dZGzFK_2R-39" value="" style="endArrow=classic;html=1;rounded=0;entryX=0;entryY=0.5;entryDx=0;entryDy=0;" edge="1" parent="1" source="PzUQUixHB01Sjxtiqrr--3" target="0xjuxr5iaV2dZGzFK_2R-7">
          <mxGeometry width="50" height="50" relative="1" as="geometry">
            <mxPoint x="220" y="550" as="sourcePoint" />
            <mxPoint x="270" y="500" as="targetPoint" />
          </mxGeometry>
        </mxCell>
        <mxCell id="0xjuxr5iaV2dZGzFK_2R-40" value="" style="endArrow=classic;html=1;rounded=0;entryX=0;entryY=0.5;entryDx=0;entryDy=0;" edge="1" parent="1" source="PzUQUixHB01Sjxtiqrr--3" target="0xjuxr5iaV2dZGzFK_2R-8">
          <mxGeometry width="50" height="50" relative="1" as="geometry">
            <mxPoint x="250" y="600" as="sourcePoint" />
            <mxPoint x="270" y="500" as="targetPoint" />
          </mxGeometry>
        </mxCell>
        <mxCell id="0xjuxr5iaV2dZGzFK_2R-43" value="" style="endArrow=classic;html=1;rounded=0;exitX=0;exitY=0.3333333333333333;exitDx=0;exitDy=0;exitPerimeter=0;" edge="1" parent="1" source="PzUQUixHB01Sjxtiqrr--9" target="0xjuxr5iaV2dZGzFK_2R-17">
          <mxGeometry width="50" height="50" relative="1" as="geometry">
            <mxPoint x="470" y="650" as="sourcePoint" />
            <mxPoint x="640" y="620" as="targetPoint" />
          </mxGeometry>
        </mxCell>
        <mxCell id="0xjuxr5iaV2dZGzFK_2R-44" value="" style="endArrow=classic;html=1;rounded=0;exitX=0.5;exitY=0;exitDx=0;exitDy=0;exitPerimeter=0;entryX=1;entryY=0.5;entryDx=0;entryDy=0;" edge="1" parent="1" source="PzUQUixHB01Sjxtiqrr--5" target="PzUQUixHB01Sjxtiqrr--2">
          <mxGeometry width="50" height="50" relative="1" as="geometry">
            <mxPoint x="710" y="410" as="sourcePoint" />
            <mxPoint x="740" y="270" as="targetPoint" />
            <Array as="points">
              <mxPoint x="720" y="280" />
            </Array>
          </mxGeometry>
        </mxCell>
        <mxCell id="0xjuxr5iaV2dZGzFK_2R-45" value="" style="endArrow=classic;html=1;rounded=0;exitX=0.5;exitY=0;exitDx=0;exitDy=0;exitPerimeter=0;entryX=0;entryY=0.5;entryDx=0;entryDy=0;" edge="1" parent="1" source="PzUQUixHB01Sjxtiqrr--3" target="PzUQUixHB01Sjxtiqrr--2">
          <mxGeometry width="50" height="50" relative="1" as="geometry">
            <mxPoint x="220" y="490" as="sourcePoint" />
            <mxPoint x="330" y="310" as="targetPoint" />
            <Array as="points">
              <mxPoint x="280" y="270" />
            </Array>
          </mxGeometry>
        </mxCell>
        <mxCell id="0xjuxr5iaV2dZGzFK_2R-52" value="" style="endArrow=classic;html=1;rounded=0;exitX=0.5;exitY=0;exitDx=0;exitDy=0;exitPerimeter=0;" edge="1" parent="1" source="0xjuxr5iaV2dZGzFK_2R-27" target="PzUQUixHB01Sjxtiqrr--2">
          <mxGeometry width="50" height="50" relative="1" as="geometry">
            <mxPoint x="390" y="760" as="sourcePoint" />
            <mxPoint x="440" y="270" as="targetPoint" />
            <Array as="points">
              <mxPoint x="283" y="310" />
            </Array>
          </mxGeometry>
        </mxCell>
        <mxCell id="0xjuxr5iaV2dZGzFK_2R-53" value="" style="endArrow=classic;html=1;rounded=0;entryX=0;entryY=0.5;entryDx=0;entryDy=0;" edge="1" parent="1" source="0xjuxr5iaV2dZGzFK_2R-27" target="0xjuxr5iaV2dZGzFK_2R-10">
          <mxGeometry width="50" height="50" relative="1" as="geometry">
            <mxPoint x="390" y="860" as="sourcePoint" />
            <mxPoint x="440" y="810" as="targetPoint" />
          </mxGeometry>
        </mxCell>
        <mxCell id="0xjuxr5iaV2dZGzFK_2R-54" value="" style="endArrow=classic;html=1;rounded=0;entryX=0;entryY=1;entryDx=0;entryDy=0;" edge="1" parent="1" source="PzUQUixHB01Sjxtiqrr--3" target="0xjuxr5iaV2dZGzFK_2R-10">
          <mxGeometry width="50" height="50" relative="1" as="geometry">
            <mxPoint x="390" y="720" as="sourcePoint" />
            <mxPoint x="440" y="670" as="targetPoint" />
            <Array as="points">
              <mxPoint x="270" y="920" />
            </Array>
          </mxGeometry>
        </mxCell>
        <mxCell id="0xjuxr5iaV2dZGzFK_2R-55" value="" style="endArrow=classic;html=1;rounded=0;exitX=0;exitY=1;exitDx=0;exitDy=0;exitPerimeter=0;entryX=1;entryY=0.5;entryDx=0;entryDy=0;" edge="1" parent="1" target="0xjuxr5iaV2dZGzFK_2R-10">
          <mxGeometry width="50" height="50" relative="1" as="geometry">
            <mxPoint x="696" y="860" as="sourcePoint" />
            <mxPoint x="440" y="670" as="targetPoint" />
          </mxGeometry>
        </mxCell>
        <mxCell id="0xjuxr5iaV2dZGzFK_2R-56" value="" style="endArrow=classic;html=1;rounded=0;entryX=1;entryY=1;entryDx=0;entryDy=0;exitX=0.5;exitY=0;exitDx=0;exitDy=0;exitPerimeter=0;" edge="1" parent="1" target="PzUQUixHB01Sjxtiqrr--2">
          <mxGeometry width="50" height="50" relative="1" as="geometry">
            <mxPoint x="711" y="800" as="sourcePoint" />
            <mxPoint x="440" y="670" as="targetPoint" />
            <Array as="points">
              <mxPoint x="700" y="290" />
            </Array>
          </mxGeometry>
        </mxCell>
        <mxCell id="0xjuxr5iaV2dZGzFK_2R-57" value="" style="endArrow=classic;html=1;rounded=0;exitX=0;exitY=0.3333333333333333;exitDx=0;exitDy=0;exitPerimeter=0;entryX=1;entryY=0.5;entryDx=0;entryDy=0;" edge="1" parent="1" source="PzUQUixHB01Sjxtiqrr--5" target="0xjuxr5iaV2dZGzFK_2R-21">
          <mxGeometry width="50" height="50" relative="1" as="geometry">
            <mxPoint x="520" y="510" as="sourcePoint" />
            <mxPoint x="650" y="330" as="targetPoint" />
          </mxGeometry>
        </mxCell>
        <mxCell id="0xjuxr5iaV2dZGzFK_2R-59" value="" style="endArrow=classic;html=1;rounded=0;entryX=1;entryY=0.5;entryDx=0;entryDy=0;" edge="1" parent="1" source="PzUQUixHB01Sjxtiqrr--5" target="0xjuxr5iaV2dZGzFK_2R-12">
          <mxGeometry width="50" height="50" relative="1" as="geometry">
            <mxPoint x="520" y="510" as="sourcePoint" />
            <mxPoint x="570" y="460" as="targetPoint" />
          </mxGeometry>
        </mxCell>
        <mxCell id="0xjuxr5iaV2dZGzFK_2R-60" value="" style="endArrow=classic;html=1;rounded=0;entryX=1;entryY=0.5;entryDx=0;entryDy=0;" edge="1" parent="1" source="PzUQUixHB01Sjxtiqrr--5" target="0xjuxr5iaV2dZGzFK_2R-13">
          <mxGeometry width="50" height="50" relative="1" as="geometry">
            <mxPoint x="520" y="510" as="sourcePoint" />
            <mxPoint x="570" y="460" as="targetPoint" />
          </mxGeometry>
        </mxCell>
        <mxCell id="0xjuxr5iaV2dZGzFK_2R-61" value="" style="endArrow=classic;html=1;rounded=0;entryX=1;entryY=0.5;entryDx=0;entryDy=0;" edge="1" parent="1" source="PzUQUixHB01Sjxtiqrr--5" target="0xjuxr5iaV2dZGzFK_2R-14">
          <mxGeometry width="50" height="50" relative="1" as="geometry">
            <mxPoint x="520" y="510" as="sourcePoint" />
            <mxPoint x="570" y="460" as="targetPoint" />
          </mxGeometry>
        </mxCell>
        <mxCell id="0xjuxr5iaV2dZGzFK_2R-62" value="" style="endArrow=classic;html=1;rounded=0;entryX=1;entryY=0.5;entryDx=0;entryDy=0;" edge="1" parent="1" source="PzUQUixHB01Sjxtiqrr--5" target="0xjuxr5iaV2dZGzFK_2R-15">
          <mxGeometry width="50" height="50" relative="1" as="geometry">
            <mxPoint x="760" y="520" as="sourcePoint" />
            <mxPoint x="570" y="460" as="targetPoint" />
          </mxGeometry>
        </mxCell>
        <mxCell id="0xjuxr5iaV2dZGzFK_2R-64" value="" style="endArrow=classic;html=1;rounded=0;entryX=1;entryY=1;entryDx=0;entryDy=0;" edge="1" parent="1" target="0xjuxr5iaV2dZGzFK_2R-10">
          <mxGeometry width="50" height="50" relative="1" as="geometry">
            <mxPoint x="793.0640394088671" y="760" as="sourcePoint" />
            <mxPoint x="540.0037326572418" y="939.8138334511998" as="targetPoint" />
            <Array as="points">
              <mxPoint x="730" y="933" />
            </Array>
          </mxGeometry>
        </mxCell>
        <mxCell id="0xjuxr5iaV2dZGzFK_2R-65" value="" style="endArrow=classic;html=1;rounded=0;entryX=0.548;entryY=0.013;entryDx=0;entryDy=0;entryPerimeter=0;" edge="1" parent="1" target="PzUQUixHB01Sjxtiqrr--2">
          <mxGeometry width="50" height="50" relative="1" as="geometry">
            <mxPoint x="804" y="700" as="sourcePoint" />
            <mxPoint x="600" y="240" as="targetPoint" />
            <Array as="points">
              <mxPoint x="790" y="280" />
              <mxPoint x="804" y="260" />
            </Array>
          </mxGeometry>
        </mxCell>
        <mxCell id="0xjuxr5iaV2dZGzFK_2R-66" value="" style="endArrow=classic;html=1;rounded=0;entryX=0.602;entryY=1.01;entryDx=0;entryDy=0;entryPerimeter=0;" edge="1" parent="1" source="PzUQUixHB01Sjxtiqrr--9" target="0xjuxr5iaV2dZGzFK_2R-10">
          <mxGeometry width="50" height="50" relative="1" as="geometry">
            <mxPoint x="780" y="680" as="sourcePoint" />
            <mxPoint x="650" y="760" as="targetPoint" />
            <Array as="points">
              <mxPoint x="740" y="950" />
            </Array>
          </mxGeometry>
        </mxCell>
        <mxCell id="0xjuxr5iaV2dZGzFK_2R-67" value="" style="endArrow=classic;html=1;rounded=0;exitX=0.5;exitY=0;exitDx=0;exitDy=0;exitPerimeter=0;entryX=0.928;entryY=0.25;entryDx=0;entryDy=0;entryPerimeter=0;" edge="1" parent="1" source="PzUQUixHB01Sjxtiqrr--9" target="PzUQUixHB01Sjxtiqrr--2">
          <mxGeometry width="50" height="50" relative="1" as="geometry">
            <mxPoint x="600" y="600" as="sourcePoint" />
            <mxPoint x="550" y="250" as="targetPoint" />
            <Array as="points">
              <mxPoint x="760" y="270" />
            </Array>
          </mxGeometry>
        </mxCell>
        <mxCell id="0xjuxr5iaV2dZGzFK_2R-68" value="" style="endArrow=classic;html=1;rounded=0;entryX=0.466;entryY=1.048;entryDx=0;entryDy=0;entryPerimeter=0;" edge="1" parent="1" source="PzUQUixHB01Sjxtiqrr--5" target="0xjuxr5iaV2dZGzFK_2R-10">
          <mxGeometry width="50" height="50" relative="1" as="geometry">
            <mxPoint x="740" y="480" as="sourcePoint" />
            <mxPoint x="650" y="480" as="targetPoint" />
            <Array as="points">
              <mxPoint x="760" y="955" />
            </Array>
          </mxGeometry>
        </mxCell>
        <mxCell id="0xjuxr5iaV2dZGzFK_2R-71" value="" style="endArrow=classic;html=1;rounded=0;entryX=0;entryY=0.5;entryDx=0;entryDy=0;" edge="1" parent="1" source="PzUQUixHB01Sjxtiqrr--3" target="0xjuxr5iaV2dZGzFK_2R-23">
          <mxGeometry width="50" height="50" relative="1" as="geometry">
            <mxPoint x="425" y="890" as="sourcePoint" />
            <mxPoint x="361" y="735" as="targetPoint" />
            <Array as="points">
              <mxPoint x="340" y="730" />
            </Array>
          </mxGeometry>
        </mxCell>
        <mxCell id="0xjuxr5iaV2dZGzFK_2R-18" value="View Lab Test Prescription" style="ellipse;whiteSpace=wrap;html=1;" vertex="1" parent="1">
          <mxGeometry x="519" y="770" width="120" height="50" as="geometry" />
        </mxCell>
        <mxCell id="qk2QJ5m_Uj9y7jqVhzEp-4" value="Lab&lt;br&gt;Technician" style="shape=umlActor;verticalLabelPosition=bottom;verticalAlign=top;html=1;outlineConnect=0;" vertex="1" parent="1">
          <mxGeometry x="692" y="800" width="30" height="60" as="geometry" />
        </mxCell>
        <mxCell id="qk2QJ5m_Uj9y7jqVhzEp-5" value="Pharmacist" style="shape=umlActor;verticalLabelPosition=bottom;verticalAlign=top;html=1;outlineConnect=0;" vertex="1" parent="1">
          <mxGeometry x="789" y="700" width="30" height="60" as="geometry" />
        </mxCell>
        <mxCell id="qk2QJ5m_Uj9y7jqVhzEp-6" value="" style="endArrow=classic;html=1;rounded=0;exitX=0;exitY=0.3333333333333333;exitDx=0;exitDy=0;exitPerimeter=0;" edge="1" parent="1" source="qk2QJ5m_Uj9y7jqVhzEp-5" target="0xjuxr5iaV2dZGzFK_2R-22">
          <mxGeometry width="50" height="50" relative="1" as="geometry">
            <mxPoint x="610" y="780" as="sourcePoint" />
            <mxPoint x="660" y="730" as="targetPoint" />
          </mxGeometry>
        </mxCell>
        <mxCell id="qk2QJ5m_Uj9y7jqVhzEp-7" value="" style="endArrow=classic;html=1;rounded=0;" edge="1" parent="1" source="qk2QJ5m_Uj9y7jqVhzEp-5" target="0xjuxr5iaV2dZGzFK_2R-23">
          <mxGeometry width="50" height="50" relative="1" as="geometry">
            <mxPoint x="630" y="760" as="sourcePoint" />
            <mxPoint x="680" y="710" as="targetPoint" />
          </mxGeometry>
        </mxCell>
        <mxCell id="qk2QJ5m_Uj9y7jqVhzEp-8" value="" style="endArrow=classic;html=1;rounded=0;exitX=0.25;exitY=0.1;exitDx=0;exitDy=0;exitPerimeter=0;entryX=1.008;entryY=0.6;entryDx=0;entryDy=0;entryPerimeter=0;" edge="1" parent="1" source="qk2QJ5m_Uj9y7jqVhzEp-4" target="0xjuxr5iaV2dZGzFK_2R-18">
          <mxGeometry width="50" height="50" relative="1" as="geometry">
            <mxPoint x="670" y="780" as="sourcePoint" />
            <mxPoint x="650" y="795" as="targetPoint" />
          </mxGeometry>
        </mxCell>
        <mxCell id="qk2QJ5m_Uj9y7jqVhzEp-9" value="" style="endArrow=classic;html=1;rounded=0;entryX=0.992;entryY=0.431;entryDx=0;entryDy=0;entryPerimeter=0;" edge="1" parent="1" source="qk2QJ5m_Uj9y7jqVhzEp-4" target="0xjuxr5iaV2dZGzFK_2R-19">
          <mxGeometry width="50" height="50" relative="1" as="geometry">
            <mxPoint x="680" y="830" as="sourcePoint" />
            <mxPoint x="730" y="730" as="targetPoint" />
          </mxGeometry>
        </mxCell>
      </root>
    </mxGraphModel>
  </diagram>
</mxfile>
